<mxfile host="app.diagrams.net" agent="Mozilla/5.0 (Windows NT 10.0; Win64; x64) AppleWebKit/537.36 (KHTML, like Gecko) Chrome/135.0.0.0 Safari/537.36" version="26.2.14">
  <diagram name="Page-1" id="0783ab3e-0a74-02c8-0abd-f7b4e66b4bec">
    <mxGraphModel dx="1330" dy="479" grid="1" gridSize="10" guides="1" tooltips="1" connect="1" arrows="1" fold="1" page="1" pageScale="1" pageWidth="850" pageHeight="1100" background="none" math="0" shadow="0">
      <root>
        <mxCell id="0" />
        <mxCell id="1" parent="0" />
        <mxCell id="tWdGnTkXpRKYh8DDhvbh-32" value="Sales Manager" style="swimlane;whiteSpace=wrap;html=1;" parent="1" vertex="1">
          <mxGeometry x="40" y="340" width="240" height="460" as="geometry" />
        </mxCell>
        <mxCell id="tWdGnTkXpRKYh8DDhvbh-46" style="edgeStyle=orthogonalEdgeStyle;rounded=0;orthogonalLoop=1;jettySize=auto;html=1;exitX=0.5;exitY=1;exitDx=0;exitDy=0;" parent="tWdGnTkXpRKYh8DDhvbh-32" source="tWdGnTkXpRKYh8DDhvbh-45" edge="1">
          <mxGeometry relative="1" as="geometry">
            <mxPoint x="65" y="90" as="targetPoint" />
          </mxGeometry>
        </mxCell>
        <mxCell id="tWdGnTkXpRKYh8DDhvbh-45" value="" style="ellipse;html=1;shape=endState;fillColor=default;gradientColor=none;strokeColor=none;" parent="tWdGnTkXpRKYh8DDhvbh-32" vertex="1">
          <mxGeometry x="50" y="40" width="30" height="30" as="geometry" />
        </mxCell>
        <mxCell id="tWdGnTkXpRKYh8DDhvbh-61" value="Provide Blueprint" style="rounded=1;whiteSpace=wrap;html=1;" parent="tWdGnTkXpRKYh8DDhvbh-32" vertex="1">
          <mxGeometry x="20" y="90" width="120" height="60" as="geometry" />
        </mxCell>
        <mxCell id="32-zJT3ndWtHOiVEAXm6-16" style="edgeStyle=orthogonalEdgeStyle;rounded=0;orthogonalLoop=1;jettySize=auto;html=1;exitX=0.25;exitY=1;exitDx=0;exitDy=0;entryX=0.5;entryY=0;entryDx=0;entryDy=0;" parent="tWdGnTkXpRKYh8DDhvbh-32" source="32-zJT3ndWtHOiVEAXm6-6" target="32-zJT3ndWtHOiVEAXm6-17" edge="1">
          <mxGeometry relative="1" as="geometry">
            <mxPoint x="90" y="300" as="targetPoint" />
          </mxGeometry>
        </mxCell>
        <mxCell id="32-zJT3ndWtHOiVEAXm6-6" value="Retrieve Product" style="rounded=1;whiteSpace=wrap;html=1;" parent="tWdGnTkXpRKYh8DDhvbh-32" vertex="1">
          <mxGeometry x="60" y="185" width="120" height="60" as="geometry" />
        </mxCell>
        <mxCell id="32-zJT3ndWtHOiVEAXm6-17" value="" style="ellipse;html=1;shape=endState;" parent="tWdGnTkXpRKYh8DDhvbh-32" vertex="1">
          <mxGeometry x="70" y="300" width="30" height="30" as="geometry" />
        </mxCell>
        <mxCell id="tWdGnTkXpRKYh8DDhvbh-40" value="Artisan" style="swimlane;whiteSpace=wrap;html=1;" parent="1" vertex="1">
          <mxGeometry x="500" y="340" width="240" height="460" as="geometry" />
        </mxCell>
        <mxCell id="tWdGnTkXpRKYh8DDhvbh-64" value="Create Product" style="rounded=1;whiteSpace=wrap;html=1;" parent="tWdGnTkXpRKYh8DDhvbh-40" vertex="1">
          <mxGeometry x="70" y="90" width="120" height="60" as="geometry" />
        </mxCell>
        <mxCell id="tWdGnTkXpRKYh8DDhvbh-76" value="Adjust Product" style="rounded=1;whiteSpace=wrap;html=1;" parent="tWdGnTkXpRKYh8DDhvbh-40" vertex="1">
          <mxGeometry x="70" y="185" width="120" height="60" as="geometry" />
        </mxCell>
        <mxCell id="tWdGnTkXpRKYh8DDhvbh-30" value="System" style="swimlane;whiteSpace=wrap;html=1;" parent="1" vertex="1">
          <mxGeometry x="280" y="340" width="220" height="460" as="geometry" />
        </mxCell>
        <mxCell id="32-zJT3ndWtHOiVEAXm6-4" style="edgeStyle=orthogonalEdgeStyle;rounded=0;orthogonalLoop=1;jettySize=auto;html=1;exitX=0;exitY=0.5;exitDx=0;exitDy=0;" parent="tWdGnTkXpRKYh8DDhvbh-30" source="tWdGnTkXpRKYh8DDhvbh-68" edge="1">
          <mxGeometry relative="1" as="geometry">
            <mxPoint x="-60" y="215" as="targetPoint" />
          </mxGeometry>
        </mxCell>
        <mxCell id="tWdGnTkXpRKYh8DDhvbh-68" value="Automatic Check Passed" style="rhombus;whiteSpace=wrap;html=1;" parent="tWdGnTkXpRKYh8DDhvbh-30" vertex="1">
          <mxGeometry x="60" y="180" width="120" height="70" as="geometry" />
        </mxCell>
        <mxCell id="32-zJT3ndWtHOiVEAXm6-2" style="edgeStyle=orthogonalEdgeStyle;rounded=0;orthogonalLoop=1;jettySize=auto;html=1;exitX=0.5;exitY=1;exitDx=0;exitDy=0;" parent="tWdGnTkXpRKYh8DDhvbh-30" source="tWdGnTkXpRKYh8DDhvbh-68" target="tWdGnTkXpRKYh8DDhvbh-68" edge="1">
          <mxGeometry relative="1" as="geometry" />
        </mxCell>
        <mxCell id="32-zJT3ndWtHOiVEAXm6-12" value="No" style="text;html=1;align=center;verticalAlign=middle;resizable=0;points=[];autosize=1;strokeColor=none;fillColor=none;" parent="tWdGnTkXpRKYh8DDhvbh-30" vertex="1">
          <mxGeometry x="60" y="250" width="40" height="30" as="geometry" />
        </mxCell>
        <mxCell id="tWdGnTkXpRKYh8DDhvbh-63" style="edgeStyle=orthogonalEdgeStyle;rounded=0;orthogonalLoop=1;jettySize=auto;html=1;exitX=1;exitY=0.5;exitDx=0;exitDy=0;entryX=0;entryY=0.5;entryDx=0;entryDy=0;" parent="1" source="tWdGnTkXpRKYh8DDhvbh-61" target="tWdGnTkXpRKYh8DDhvbh-64" edge="1">
          <mxGeometry relative="1" as="geometry">
            <mxPoint x="540" y="630" as="targetPoint" />
          </mxGeometry>
        </mxCell>
        <mxCell id="tWdGnTkXpRKYh8DDhvbh-31" value="Artisan Manager" style="swimlane;whiteSpace=wrap;html=1;" parent="1" vertex="1">
          <mxGeometry x="740" y="340" width="240" height="460" as="geometry" />
        </mxCell>
        <mxCell id="32-zJT3ndWtHOiVEAXm6-9" value="Manual Check Passed" style="rhombus;whiteSpace=wrap;html=1;" parent="tWdGnTkXpRKYh8DDhvbh-31" vertex="1">
          <mxGeometry x="70" y="310" width="100" height="80" as="geometry" />
        </mxCell>
        <mxCell id="32-zJT3ndWtHOiVEAXm6-14" value="No" style="text;html=1;align=center;verticalAlign=middle;resizable=0;points=[];autosize=1;strokeColor=none;fillColor=none;" parent="tWdGnTkXpRKYh8DDhvbh-31" vertex="1">
          <mxGeometry x="170" y="320" width="40" height="30" as="geometry" />
        </mxCell>
        <mxCell id="32-zJT3ndWtHOiVEAXm6-11" value="Yes" style="text;html=1;align=center;verticalAlign=middle;resizable=0;points=[];autosize=1;strokeColor=none;fillColor=none;" parent="tWdGnTkXpRKYh8DDhvbh-31" vertex="1">
          <mxGeometry x="10" y="320" width="40" height="30" as="geometry" />
        </mxCell>
        <mxCell id="32-zJT3ndWtHOiVEAXm6-3" style="edgeStyle=orthogonalEdgeStyle;rounded=0;orthogonalLoop=1;jettySize=auto;html=1;exitX=0.5;exitY=1;exitDx=0;exitDy=0;entryX=0.5;entryY=0;entryDx=0;entryDy=0;" parent="1" source="tWdGnTkXpRKYh8DDhvbh-64" target="tWdGnTkXpRKYh8DDhvbh-68" edge="1">
          <mxGeometry relative="1" as="geometry" />
        </mxCell>
        <mxCell id="32-zJT3ndWtHOiVEAXm6-5" value="Yes" style="text;html=1;align=center;verticalAlign=middle;resizable=0;points=[];autosize=1;strokeColor=none;fillColor=none;" parent="1" vertex="1">
          <mxGeometry x="300" y="518" width="40" height="30" as="geometry" />
        </mxCell>
        <mxCell id="JF2sZErXjyvnnoWD1SnS-4" style="edgeStyle=orthogonalEdgeStyle;rounded=0;orthogonalLoop=1;jettySize=auto;html=1;exitX=0;exitY=0.5;exitDx=0;exitDy=0;entryX=1;entryY=0.5;entryDx=0;entryDy=0;" edge="1" parent="1" source="tWdGnTkXpRKYh8DDhvbh-76" target="tWdGnTkXpRKYh8DDhvbh-68">
          <mxGeometry relative="1" as="geometry" />
        </mxCell>
        <mxCell id="JF2sZErXjyvnnoWD1SnS-5" style="edgeStyle=orthogonalEdgeStyle;rounded=0;orthogonalLoop=1;jettySize=auto;html=1;exitX=0.5;exitY=1;exitDx=0;exitDy=0;entryX=0.5;entryY=0;entryDx=0;entryDy=0;" edge="1" parent="1" source="tWdGnTkXpRKYh8DDhvbh-68" target="32-zJT3ndWtHOiVEAXm6-9">
          <mxGeometry relative="1" as="geometry" />
        </mxCell>
        <mxCell id="JF2sZErXjyvnnoWD1SnS-6" style="edgeStyle=orthogonalEdgeStyle;rounded=0;orthogonalLoop=1;jettySize=auto;html=1;exitX=0;exitY=0.5;exitDx=0;exitDy=0;entryX=0.75;entryY=1;entryDx=0;entryDy=0;" edge="1" parent="1" source="32-zJT3ndWtHOiVEAXm6-9" target="32-zJT3ndWtHOiVEAXm6-6">
          <mxGeometry relative="1" as="geometry" />
        </mxCell>
        <mxCell id="JF2sZErXjyvnnoWD1SnS-7" style="edgeStyle=orthogonalEdgeStyle;rounded=0;orthogonalLoop=1;jettySize=auto;html=1;exitX=1;exitY=0.5;exitDx=0;exitDy=0;entryX=1;entryY=0.5;entryDx=0;entryDy=0;" edge="1" parent="1" source="32-zJT3ndWtHOiVEAXm6-9" target="tWdGnTkXpRKYh8DDhvbh-76">
          <mxGeometry relative="1" as="geometry">
            <Array as="points">
              <mxPoint x="960" y="690" />
              <mxPoint x="960" y="555" />
            </Array>
          </mxGeometry>
        </mxCell>
      </root>
    </mxGraphModel>
  </diagram>
</mxfile>
